<svg id="visual" viewBox="0 0 900 600" width="900" height="600" xmlns="http://www.w3.org/2000/svg" xmlns:xlink="http://www.w3.org/1999/xlink" version="1.1"><rect x="0" y="0" width="900" height="600" fill="#001220"></rect><defs><linearGradient id="grad1_0" x1="33.3%" y1="0%" x2="100%" y2="100%"><stop offset="20%" stop-color="#001220" stop-opacity="1"></stop><stop offset="80%" stop-color="#001220" stop-opacity="1"></stop></linearGradient></defs><defs><linearGradient id="grad2_0" x1="0%" y1="0%" x2="66.7%" y2="100%"><stop offset="20%" stop-color="#001220" stop-opacity="1"></stop><stop offset="80%" stop-color="#001220" stop-opacity="1"></stop></linearGradient></defs><g transform="translate(900, 0)"><path d="M0 243.4C-21.7 218.1 -43.4 192.9 -76.9 185.7C-110.4 178.5 -155.7 189.4 -172.1 172.1C-188.5 154.8 -175.9 109.2 -182.9 75.8C-190 42.4 -216.7 21.2 -243.4 0L0 0Z" fill="#9900ff"></path></g><g transform="translate(0, 600)"><path d="M0 -243.4C30.9 -239.5 61.9 -235.7 93.1 -224.8C124.4 -214 156 -196.3 169.7 -169.7C183.4 -143.2 179.2 -107.8 188.5 -78.1C197.8 -48.3 220.6 -24.2 243.4 0L0 0Z" fill="#9900ff"></path></g></svg>