<svg id="visual" viewBox="0 0 900 600" width="900" height="600" xmlns="http://www.w3.org/2000/svg" xmlns:xlink="http://www.w3.org/1999/xlink" version="1.1"><rect x="0" y="0" width="900" height="600" fill="#f2e9e4"></rect><defs><linearGradient id="grad1_0" x1="33.3%" y1="100%" x2="100%" y2="0%"><stop offset="20%" stop-color="#f2e9e4" stop-opacity="1"></stop><stop offset="80%" stop-color="#f2e9e4" stop-opacity="1"></stop></linearGradient></defs><defs><linearGradient id="grad2_0" x1="0%" y1="100%" x2="66.7%" y2="0%"><stop offset="20%" stop-color="#f2e9e4" stop-opacity="1"></stop><stop offset="80%" stop-color="#f2e9e4" stop-opacity="1"></stop></linearGradient></defs><g transform="translate(900, 600)"><path d="M-270.4 0C-256 -20.7 -241.5 -41.4 -234.7 -62.9C-227.9 -84.4 -228.7 -106.6 -221.7 -128C-214.7 -149.4 -199.9 -169.9 -180.3 -180.3C-160.8 -190.7 -136.5 -190.9 -118.5 -205.2C-100.5 -219.6 -88.7 -248 -70 -261.2C-51.3 -274.4 -25.6 -272.4 0 -270.4L0 0Z" fill="#c9ada7"></path></g><g transform="translate(0, 0)"><path d="M270.4 0C260 21.9 249.6 43.8 240.5 64.4C231.4 85 223.5 104.3 214.8 124C206 143.7 196.5 163.7 183.8 183.8C171.2 204 155.6 224.2 135.2 234.2C114.9 244.2 89.8 243.9 66.5 248.2C43.2 252.6 21.6 261.5 0 270.4L0 0Z" fill="#c9ada7"></path></g></svg>