<svg id="visual" viewBox="0 0 900 600" width="900" height="600" xmlns="http://www.w3.org/2000/svg" xmlns:xlink="http://www.w3.org/1999/xlink" version="1.1"><rect x="0" y="0" width="900" height="600" fill="#f2e9e4"></rect><defs><linearGradient id="grad1_0" x1="33.3%" y1="100%" x2="100%" y2="0%"><stop offset="20%" stop-color="#f2e9e4" stop-opacity="1"></stop><stop offset="80%" stop-color="#f2e9e4" stop-opacity="1"></stop></linearGradient></defs><defs><linearGradient id="grad2_0" x1="0%" y1="100%" x2="66.7%" y2="0%"><stop offset="20%" stop-color="#f2e9e4" stop-opacity="1"></stop><stop offset="80%" stop-color="#f2e9e4" stop-opacity="1"></stop></linearGradient></defs><g transform="translate(900, 600)"><path d="M-270.4 0C-263.1 -23.2 -255.7 -46.3 -243.4 -65.2C-231.1 -84.1 -213.8 -98.8 -204.4 -118C-194.9 -137.2 -193.2 -161.1 -183.8 -183.8C-174.4 -206.6 -157.3 -228.3 -135.2 -234.2C-113.1 -240.1 -86 -230.3 -62.6 -233.8C-39.3 -237.2 -19.6 -253.8 0 -270.4L0 0Z" fill="#c9ada7"></path></g><g transform="translate(0, 0)"><path d="M270.4 0C259.7 21.6 248.9 43.1 243.4 65.2C237.9 87.3 237.6 110 231.2 133.5C224.9 157 212.5 181.4 191.2 191.2C169.9 201 139.7 196.2 118.5 205.2C97.3 214.2 85.3 237 67 250.2C48.8 263.3 24.4 266.9 0 270.4L0 0Z" fill="#c9ada7"></path></g></svg>