<svg id="visual" viewBox="0 0 900 600" width="900" height="600" xmlns="http://www.w3.org/2000/svg" xmlns:xlink="http://www.w3.org/1999/xlink" version="1.1"><rect x="0" y="0" width="900" height="600" fill="#001220"></rect><defs><linearGradient id="grad1_0" x1="33.3%" y1="0%" x2="100%" y2="100%"><stop offset="20%" stop-color="#001220" stop-opacity="1"></stop><stop offset="80%" stop-color="#001220" stop-opacity="1"></stop></linearGradient></defs><defs><linearGradient id="grad2_0" x1="0%" y1="0%" x2="66.7%" y2="100%"><stop offset="20%" stop-color="#001220" stop-opacity="1"></stop><stop offset="80%" stop-color="#001220" stop-opacity="1"></stop></linearGradient></defs><g transform="translate(900, 0)"><path d="M0 243.4C-27 221.6 -53.9 199.9 -75.8 182.9C-97.6 166 -114.3 153.7 -141.4 141.4C-168.6 129.1 -206.1 116.7 -224.8 93.1C-243.6 69.6 -243.5 34.8 -243.4 0L0 0Z" fill="#9900ff"></path></g><g transform="translate(0, 600)"><path d="M0 -243.4C28.6 -227.4 57.3 -211.3 81.1 -195.9C105 -180.4 124.1 -165.4 149.9 -149.9C175.7 -134.4 208.2 -118.2 224.8 -93.1C241.5 -68.1 242.5 -34 243.4 0L0 0Z" fill="#9900ff"></path></g></svg>